<?xml version="1.0" encoding="UTF-8"?>
<svg width="202.36mm" height="51.968mm" version="1.1" viewBox="0 0 202.36404 51.96788" xmlns="http://www.w3.org/2000/svg" xmlns:cc="http://creativecommons.org/ns#" xmlns:dc="http://purl.org/dc/elements/1.1/" xmlns:rdf="http://www.w3.org/1999/02/22-rdf-syntax-ns#">
<defs>
<style>.cls-1 {
        filter: url(#a);
      }
      .cls-2 {
        font-size: 72px;
        font-family: Verdana;
      }
      .cls-2, .cls-3 {
        fill: #fff;
        text-anchor: middle;
        font-weight: 700;
      }
      .cls-3 {
        font-size: 35.514px;
        font-family: Corbel;
      }</style>
<filter id="a" filterUnits="userSpaceOnUse">
<feFlood flood-color="#fff" result="flood"/>
<feComposite in2="SourceGraphic" operator="in" result="composite"/>
<feBlend in2="SourceGraphic" result="blend"/>
</filter>
<style>.cls-1 {
        filter: url(#a);
      }
      .cls-2 {
        font-size: 72px;
        font-family: Verdana;
      }
      .cls-2, .cls-3 {
        fill: #fff;
        text-anchor: middle;
        font-weight: 700;
      }
      .cls-3 {
        font-size: 35.514px;
        font-family: Corbel;
      }</style>
</defs>
<metadata>
<rdf:RDF>
<cc:Work rdf:about="">
<dc:format>image/svg+xml</dc:format>
<dc:type rdf:resource="http://purl.org/dc/dcmitype/StillImage"/>
<dc:title/>
</cc:Work>
</rdf:RDF>
</metadata>
<g transform="translate(-3.323 -11.613)" fill="#fffff1">
<path d="m27.581 63.227c-2.1785-0.21621-2.8152-0.31625-4.4627-0.70125-2.7238-0.63652-5.0225-1.6208-7.8444-3.3589-0.19567-0.12052-1.5203-1.063-1.6749-1.1917-0.07383-0.06145-0.39012-0.3162-0.70288-0.5661-1.6248-1.2982-3.3044-3.0968-4.5774-4.9016-1.4076-1.9955-2.5572-4.0772-3.1466-5.6977-0.6297-1.7312-0.82748-2.4158-1.1982-4.1479-0.37756-1.7639-0.56039-4.3893-0.44528-6.3941 0.11333-1.9736 0.44662-4.1503 0.62639-4.0908 0.10246 0.03391 0.15232 0.5141 0.24119 2.3229 0.13033 2.6526 0.46693 4.7509 1.1752 7.3257 1.0631 3.8649 3.0272 7.1264 5.5854 9.2751 0.41346 0.34727 1.5794 1.195 1.6436 1.195 0.02293 0 0.12164 0.05676 0.21932 0.12607 0.50892 0.3613 2.0714 1.0939 2.9953 1.4044 1.2456 0.41861 2.0334 0.60388 3.6383 0.85559 1.0271 0.1611 1.2643 0.17329 3.412 0.17536 1.9754 0.0018 2.472-0.01852 3.4454-0.14188 2.5323-0.32082 3.914-0.64739 6.1215-1.4468 0.61913-0.22422 2.3458-1.1177 3.0173-1.5614 1.3016-0.85992 2.4289-1.8447 3.1933-2.7898 0.20835-0.25757 0.39573-0.48336 0.41641-0.50176 0.02068-0.01841 0.2049-0.28935 0.40939-0.60211 1.3893-2.125 1.9625-4.4767 1.6063-6.5898-0.75045-4.4514-4.7659-7.4087-10.984-8.0897-1.5218-0.16664-2.5931-0.18037-5.6197-0.07198-4.281 0.1533-7.0753 0.02996-10.035-0.44291-0.79031-0.12626-1.0845-0.1897-2.0405-0.43998-2.958-0.7744-4.8227-2.1692-5.4207-4.0549-0.22207-0.70019-0.23564-1.9549-0.029852-2.7604 0.28696-1.1231 0.86728-2.3577 1.5231-3.2406 4.0701-5.4788 9.8225-8.9515 16.572-10.004 2.9177-0.45512 6.6931-0.37052 9.2993 0.20837 3.2023 0.7113 5.6154 1.6671 8.228 3.2589 0.46076 0.28075 1.6074 1.0625 1.9745 1.3461 1.1563 0.8934 2.6074 2.2044 2.5279 2.2838-0.02461 0.02459-0.21961-0.06144-0.43334-0.19122-0.44792-0.27198-1.9699-1.0368-2.4626-1.2375-1.0453-0.42579-2.4493-0.9141-3.2447-1.1284-1.8202-0.49049-2.6161-0.65136-4.5493-0.91956-7.0884-0.98337-14.158 0.28939-16.131 2.904-0.35635 0.47233-0.59476 1.0991-0.59476 1.5636 0 0.29056 0.19283 1.0472 0.33675 1.3213 0.29255 0.55721 0.87123 1.0181 1.58 1.2583 1.0459 0.35453 2.8706 0.36704 6.0445 0.04143 0.53354-0.05474 1.4217-0.14542 1.9736-0.20152 3.2301-0.32832 5.842-0.38283 8.1215-0.1695 0.78246 0.07323 1.4433 0.14591 1.4686 0.16152 0.02526 0.01561 0.28514 0.06163 0.57753 0.10231 0.57688 0.08023 2.1666 0.45826 2.8114 0.66852 2.606 0.84981 4.6071 1.96 6.7571 3.7486 0.58813 0.48928 2.2822 2.2669 2.7258 2.8603 1.9206 2.5691 2.7322 5.2058 2.7242 8.8504-0.0039 1.7544-0.17248 2.8955-0.7811 5.2852-0.55816 2.1916-1.6554 4.8522-2.6211 6.3559-0.05918 0.09215-0.14394 0.22762-0.18837 0.30105-0.04442 0.07343-0.16286 0.26899-0.2632 0.43458-0.47109 0.77736-1.7952 2.5279-2.5299 3.3447-3.1645 3.518-6.8703 5.978-11.142 7.3963-0.91468 0.30369-1.0961 0.35449-2.1074 0.5901-2.0992 0.48907-3.455 0.64934-5.7201 0.6762-0.97509 0.01161-1.8933 0.0093-2.0405-0.0055z"/>
<g transform="scale(1.0216 .97885)" stroke-width="1.1486" aria-label="aropa">
<path d="m73.032 48.98v-5.2614q-1.6414 0.13491-3.5526 0.38224-1.9112 0.22485-2.9005 0.53963-1.2142 0.38224-1.8662 1.1242-0.62957 0.71951-0.62957 1.9112 0 0.78696 0.13491 1.2816t0.67454 0.94436q0.51715 0.44969 1.2367 0.67454 0.71951 0.20236 2.2485 0.20236 1.2142 0 2.4508-0.49466 1.2591-0.49466 2.2035-1.3041zm0 3.9123q-0.65206 0.49466-1.6189 1.1917t-1.8213 1.1017q-1.1917 0.53963-2.4733 0.78696-1.2816 0.26982-2.8106 0.26982-3.5975 0-6.0259-2.226-2.4283-2.226-2.4283-5.6886 0-2.7656 1.2367-4.5194 1.2367-1.7538 3.5076-2.7656 2.2485-1.0118 5.5762-1.439 3.3277-0.42721 6.9028-0.62957v-0.13491q0-2.0911-1.7088-2.878-1.7088-0.80945-5.0366-0.80945-2.0011 0-4.2721 0.71951-2.2709 0.69702-3.2603 1.0793h-0.74199v-6.0933q1.2816-0.33727 4.1597-0.78696 2.9005-0.47218 5.801-0.47218 6.9028 0 9.9607 2.136 3.0804 2.1136 3.0804 6.6554v17.178h-8.027z"/>
<path d="m103.39 38.03h-0.71951q-0.51715-0.17988-1.6639-0.26982-1.1467-0.08994-1.9112-0.08994-1.7313 0-3.0579 0.22485-1.3266 0.22485-2.8555 0.76448v16.908h-8.0945v-25.25h8.0945v3.71q2.6757-2.2934 4.6543-3.0354 1.9786-0.76448 3.6425-0.76448 0.42721 0 0.96684 0.02248t0.94436 0.06745z"/>
<path d="m133.83 42.954q0 6.2282-3.6425 9.8258-3.62 3.5751-10.186 3.5751t-10.208-3.5751q-3.62-3.5975-3.62-9.8258 0-6.2732 3.6425-9.8483 3.665-3.5751 10.186-3.5751 6.6105 0 10.208 3.5975 3.62 3.5975 3.62 9.8258zm-9.9607 6.1383q0.78696-0.96684 1.1692-2.3159 0.40472-1.3716 0.40472-3.7774 0-2.226-0.40472-3.7324t-1.1242-2.4059q-0.71951-0.92187-1.7313-1.3041-1.0118-0.38224-2.181-0.38224t-2.0911 0.31478q-0.89938 0.31478-1.7313 1.2591-0.742 0.8769-1.1917 2.4059-0.42721 1.529-0.42721 3.8449 0 2.0686 0.38224 3.5975 0.38224 1.5065 1.1242 2.4283 0.71951 0.8769 1.7088 1.2816 1.0118 0.40472 2.2934 0.40472 1.1017 0 2.0911-0.35975 1.0118-0.38224 1.7088-1.2591z"/>
<path d="m164.51 42.595q0 3.1254-0.96684 5.6886-0.94436 2.5632-2.4958 4.2271-1.6189 1.7538-3.665 2.6532t-4.3845 0.89938q-2.1585 0-3.665-0.47218-1.5065-0.44969-3.0804-1.2816v10.523h-8.0945v-34.514h8.0945v2.6307q1.8662-1.484 3.7999-2.4059 1.9562-0.92187 4.4969-0.92187 4.7218 0 7.33 3.4626 2.6307 3.4626 2.6307 9.511zm-8.3418 0.15739q0-3.6875-1.2591-5.3513t-3.9798-1.6639q-1.1467 0-2.3609 0.35975-1.2142 0.33727-2.3159 0.98932v12.704q0.80945 0.31478 1.7313 0.40472 0.92187 0.08994 1.8212 0.08994 3.2153 0 4.7892-1.8662 1.5739-1.8887 1.5739-5.6661z"/>
<path d="m184.9 48.98v-5.2614q-1.6414 0.13491-3.5526 0.38224-1.9112 0.22485-2.9005 0.53963-1.2142 0.38224-1.8662 1.1242-0.62957 0.71951-0.62957 1.9112 0 0.78696 0.13491 1.2816 0.1349 0.49466 0.67454 0.94436 0.51714 0.44969 1.2366 0.67454 0.71951 0.20236 2.2485 0.20236 1.2142 0 2.4508-0.49466 1.2591-0.49466 2.2035-1.3041zm0 3.9123q-0.65205 0.49466-1.6189 1.1917t-1.8213 1.1017q-1.1917 0.53963-2.4733 0.78696-1.2816 0.26982-2.8106 0.26982-3.5975 0-6.0259-2.226t-2.4283-5.6886q0-2.7656 1.2366-4.5194t3.5076-2.7656q2.2485-1.0118 5.5762-1.439 3.3277-0.42721 6.9028-0.62957v-0.13491q0-2.0911-1.7088-2.878-1.7088-0.80945-5.0366-0.80945-2.0011 0-4.2721 0.71951-2.2709 0.69702-3.2603 1.0793h-0.74199v-6.0933q1.2816-0.33727 4.1597-0.78696 2.9005-0.47218 5.801-0.47218 6.9028 0 9.9607 2.136 3.0804 2.1136 3.0804 6.6554v17.178h-8.027z"/>
</g>
<g transform="translate(-.070871 -.070871)" aria-label="®">
<path d="m205.69 25.549q0 1.9867-1.4096 3.3963-1.404 1.404-3.3908 1.404-1.9867 0-3.3963-1.404-1.404-1.4096-1.404-3.3963 0-1.9867 1.404-3.3908 1.4096-1.4096 3.3963-1.4096 1.9867 0 3.3908 1.4096 1.4096 1.404 1.4096 3.3908zm-1.0544 0q0-1.5483-1.0988-2.6582-1.0933-1.1155-2.6416-1.1155-1.5483 0-2.6471 1.1155-1.0933 1.1099-1.0933 2.6582 0 1.5483 1.0933 2.6638 1.0988 1.1099 2.6471 1.1099 1.5483 0 2.6416-1.1099 1.0988-1.1155 1.0988-2.6638zm-1.0489 2.2753h-1.5039l-1.4484-1.7537h-0.47726v1.7537h-1.1765v-4.7781h1.8147q0.50501 0 0.81024 0.03885 0.30522 0.03885 0.60489 0.19978 0.32743 0.18314 0.47726 0.44396 0.15539 0.26083 0.15539 0.6493 0 0.52166-0.29412 0.86018-0.29413 0.33852-0.76584 0.5272zm-2.0533-3.3575q0-0.14984-0.0666-0.27193-0.0611-0.12764-0.21089-0.20533-0.13873-0.07769-0.32187-0.09434-0.17758-0.0222-0.40511-0.0222h-0.37182v1.3485h0.28302q0.29413 0 0.50501-0.03885 0.21088-0.0444 0.33852-0.14429 0.12764-0.09434 0.18869-0.23308 0.061-0.13874 0.061-0.33852z" fill="#fffff1" stroke-width=".28414"/>
</g>
</g>
</svg>
